<svg width="467" height="662" viewBox="0 0 467 662" fill="none" xmlns="http://www.w3.org/2000/svg">
<path d="M57.0002 23.3336C74.9609 8.78742 95.0677 1.51431 117.733 1.51431L117.725 1.52273C136.031 1.52273 239.448 -1.90341 330.703 1.52273C463.505 1.52273 462.561 56.9145 462.561 87.5036V214.556C462.561 217.123 461.711 218.403 458.715 218.403H134.406C131.41 218.403 130.13 217.123 130.13 214.556V92.6386C130.13 66.9723 119.004 53.2847 96.7677 53.2847C82.2242 53.2847 70.2476 58.4112 61.2673 66.5429V597.235C61.2673 609.214 65.1136 613.49 75.3816 613.49C78.8071 613.49 79.2364 613.49 83.0826 613.061C84.7912 613.061 85.2204 613.919 85.2204 616.057V652.844C85.2204 656.27 84.7912 657.12 82.2241 657.979C77.0902 660.117 68.9599 661.826 55.7041 661.826C24.9085 661.826 1.81399 650.276 1.81399 602.791V55.4144C1.81399 40.8766 0.963927 18.628 0.105439 9.21673C-0.323805 7.07015 0.534683 5.79063 3.10162 5.79063H48.0115C51.437 5.79063 52.7163 7.07857 53.5748 9.21673C55.2918 13.0637 56.1417 17.3485 57.0002 23.3336Z" fill="white"/>
<path d="M160.497 243.96C141.248 243.96 127.134 257.647 127.134 276.899C127.134 297.01 139.961 310.268 160.067 310.268C164.066 310.268 440.78 309.71 444.187 308.663C457.908 304.449 466.416 292.322 466.416 276.899C466.416 261.273 458.242 249.312 444.187 245.362C440.926 244.445 164.362 243.96 160.497 243.96Z" fill="white"/>
<path d="M133.556 332.938C130.989 332.938 130.13 334.226 130.13 336.364H130.147V653.703C130.147 656.27 131.426 657.55 134.423 657.55H458.732C462.149 657.55 462.578 656.27 462.578 653.703V336.364C462.578 333.796 461.719 332.938 459.152 332.938H133.556Z" fill="white"/>
</svg>
