<svg width="404" height="193" viewBox="0 0 404 193" fill="none" xmlns="http://www.w3.org/2000/svg">
<path d="M23.8354 71.931L17.5924 91.1821C17.3313 91.8322 16.9423 92.2239 16.1616 92.2239H1.07244C0.161211 92.2239 -0.0973139 91.7043 0.0306685 90.9236L26.0469 15.8696C26.5665 14.4387 27.0887 12.8774 27.3472 7.93467C27.3472 7.41506 27.7363 7.02344 28.1279 7.02344H48.9404C49.5906 7.02344 49.8516 7.15398 49.9822 7.80413L79.5103 91.0515C79.7714 91.7017 79.6408 92.2213 78.8601 92.2213H61.9511C61.1704 92.2213 60.7813 91.9602 60.5203 91.3101L53.8856 71.9284H23.8354V71.931ZM49.071 55.6721C46.4704 47.087 41.2666 31.3478 38.794 22.1126H38.6634C36.5824 30.8282 31.8983 45.1366 28.517 55.6721H49.0684H49.071Z" fill="white"/>
<path d="M103.312 27.5754C104.224 27.5754 104.613 27.9645 104.874 28.7452C105.524 30.4371 106.174 33.1683 106.305 36.03C110.597 30.9567 117.751 26.2751 126.987 26.2751C127.767 26.2751 128.028 26.5362 128.028 27.3169V43.3173C128.028 43.9674 127.767 44.2285 126.859 44.2285C117.493 43.8394 109.95 46.7011 107.219 49.8213L107.088 91.1852C107.088 91.9659 106.827 92.227 105.918 92.227H90.3095C89.2677 92.227 89.0092 91.838 89.0092 91.0573V46.1764C89.0092 40.5836 88.8786 33.0377 88.359 28.4867C88.359 27.8365 88.4896 27.5754 89.1397 27.5754H103.318H103.312Z" fill="white"/>
<path d="M196.965 27.5731C197.876 27.5731 198.265 28.2233 197.746 28.8734C193.714 33.6856 178.103 50.9862 173.16 56.3205C173.03 56.4511 173.03 56.7096 173.16 56.8401C180.703 66.2059 193.061 81.295 201.127 91.0498C201.646 91.4389 201.257 92.2196 200.477 92.2196H179.795C178.884 92.2196 178.625 91.8305 178.103 91.3084C174.071 86.3657 162.883 71.6682 156.771 63.6027V90.9193C156.771 91.8305 156.51 92.2196 155.601 92.2196H139.862C138.82 92.2196 138.561 91.8305 138.561 90.9193V1.03982C138.561 0.520215 138.822 -0.00195312 139.862 -0.00195312H155.601C156.251 -0.00195312 156.771 0.259131 156.771 1.03982V54.5006C163.536 46.4352 175.633 31.8682 178.364 28.4844C179.014 27.7037 179.406 27.5731 180.184 27.5731H196.965Z" fill="white"/>
<path d="M258.88 77.7855C258.88 81.1668 258.88 83.8979 259.141 87.0207C259.141 87.2818 259.141 87.5403 258.88 87.6709C247.433 92.0939 239.89 93.5248 230.524 93.5248C216.085 93.5248 204.25 86.8902 204.25 71.801C204.25 58.0122 216.346 50.73 233.647 50.73C237.159 50.73 240.151 50.73 241.321 50.9911V50.0799C241.321 47.6072 239.759 41.8839 228.832 41.8839C222.328 41.8839 216.605 43.1842 211.662 45.3957C211.143 45.6568 210.492 45.3957 210.492 44.7456V31.6069C210.492 30.9567 210.623 30.5651 211.404 30.3066C217.127 27.5754 224.542 26.2751 231.825 26.2751C250.556 26.2751 258.88 37.8524 258.88 52.6805V77.7855ZM241.321 64.3883C239.24 64.1272 237.417 63.9992 234.817 63.9992C225.582 63.9992 221.809 66.9915 221.809 71.6731C221.809 75.9656 225.062 79.4774 233.255 79.4774C236.248 79.4774 238.848 79.0884 241.321 78.3077V64.3883V64.3883Z" fill="white"/>
<path d="M134.916 171.407L128.673 190.658C128.412 191.308 128.023 191.699 127.242 191.699H112.153C111.242 191.699 110.984 191.18 111.112 190.399L137.128 115.345C137.647 113.914 138.17 112.353 138.428 107.41C138.428 106.891 138.817 106.499 139.209 106.499H160.021C160.671 106.499 160.933 106.63 161.063 107.28L190.591 190.527C190.852 191.177 190.722 191.697 189.941 191.697H173.032C172.251 191.697 171.862 191.436 171.601 190.786L164.967 171.404H134.919L134.916 171.407ZM160.152 155.148C157.551 146.563 152.348 130.823 149.875 121.588H149.744C147.663 130.304 142.979 144.612 139.598 155.148H160.149H160.152Z" fill="white"/>
<path d="M256.277 177.259C256.277 183.894 256.797 187.925 257.058 190.657C257.188 191.437 256.797 191.698 255.888 191.698H242.099C241.057 191.698 240.799 191.437 240.538 190.787C240.277 189.617 239.888 187.925 239.757 186.756C234.034 191.698 227.53 192.999 221.937 192.999C208.929 192.999 199.955 185.844 199.955 167.894V128.091C199.955 127.18 200.216 127.049 201.124 127.049H216.994C217.775 127.049 217.905 127.31 217.905 128.091V165.813C217.905 172.836 220.898 177.39 228.052 177.39C232.344 177.39 235.337 176.09 238.198 173.617V128.091C238.198 127.31 238.587 127.049 239.499 127.049H255.238C256.149 127.049 256.28 127.31 256.28 128.091V177.259H256.277Z" fill="white"/>
<path d="M292.44 32.9098C297.902 28.4867 304.017 26.2751 310.91 26.2751L310.908 26.2777C320.923 26.2777 332.759 31.4789 332.759 52.4219V91.0547C332.759 91.8354 332.501 92.2245 331.59 92.2245H315.981C315.07 92.2245 314.68 91.8354 314.68 91.0547V53.9833C314.68 46.179 311.297 42.017 304.534 42.017C300.111 42.017 296.469 43.5758 293.737 46.0484V173.36C293.737 177.003 294.907 178.303 298.03 178.303C299.072 178.303 299.202 178.303 300.372 178.172C300.892 178.172 301.022 178.433 301.022 179.084V190.269C301.022 191.311 300.892 191.569 300.111 191.831C298.55 192.481 296.077 193 292.046 193C282.68 193 275.656 189.488 275.656 175.05V42.6646C275.656 38.2441 275.398 31.4789 275.136 28.6172C275.006 27.9645 275.267 27.5754 276.048 27.5754H289.706C290.748 27.5754 291.137 27.9671 291.398 28.6172C291.92 29.787 292.179 31.0898 292.44 32.9098Z" fill="white"/>
<path d="M323.916 99.9956C318.062 99.9956 313.769 104.158 313.769 110.012C313.769 116.127 317.67 120.158 323.785 120.158C329.9 120.158 333.932 115.865 333.932 110.012C333.932 104.158 330.159 99.9956 323.916 99.9956Z" fill="white"/>
<path d="M315.722 127.051C314.942 127.051 314.68 127.443 314.68 128.093H314.686V190.53C314.686 191.311 315.075 191.7 315.986 191.7H331.595C332.634 191.7 332.764 191.311 332.764 190.53V128.093C332.764 127.312 332.503 127.051 331.723 127.051H315.722Z" fill="white"/>
<path d="M402.998 177.263C402.998 180.644 402.998 183.375 403.26 186.498C403.26 186.759 403.26 187.018 402.998 187.148C391.552 191.571 384.008 193.002 374.643 193.002C360.204 193.002 348.368 186.367 348.368 171.278C348.368 157.49 360.465 150.205 377.765 150.205C381.277 150.205 384.27 150.205 385.439 150.466V149.555C385.439 147.082 383.878 141.361 372.951 141.361C366.447 141.361 360.723 142.661 355.781 144.873C355.261 145.134 354.611 144.873 354.611 144.223V131.084C354.611 130.434 354.741 130.042 355.522 129.784C361.245 127.053 368.661 125.752 375.943 125.752C394.674 125.752 402.998 137.33 402.998 152.158V177.263V177.263ZM385.439 163.866C383.358 163.605 381.536 163.477 378.935 163.477C369.7 163.477 365.927 166.469 365.927 171.15C365.927 175.443 369.18 178.955 377.374 178.955C380.366 178.955 382.967 178.566 385.439 177.785V163.866Z" fill="white"/>
</svg>
